<mxfile host="app.diagrams.net" agent="Mozilla/5.0 (Macintosh; Intel Mac OS X 10.15; rv:132.0) Gecko/20100101 Firefox/132.0" version="24.7.17">
  <diagram name="Page-1" id="ICtv4b7Ie-dXF2YXfRu3">
    <mxGraphModel dx="1037" dy="585" grid="0" gridSize="10" guides="1" tooltips="1" connect="1" arrows="1" fold="1" page="1" pageScale="1" pageWidth="850" pageHeight="1100" math="0" shadow="0">
      <root>
        <mxCell id="0" />
        <mxCell id="1" parent="0" />
        <mxCell id="GD8JbYU16s2vGa1B2hzp-1" value="commit" style="ellipse;whiteSpace=wrap;html=1;" vertex="1" parent="1">
          <mxGeometry x="80" y="510" width="60" height="60" as="geometry" />
        </mxCell>
        <mxCell id="GD8JbYU16s2vGa1B2hzp-2" value="discover" style="ellipse;whiteSpace=wrap;html=1;" vertex="1" parent="1">
          <mxGeometry x="160" y="510" width="60" height="60" as="geometry" />
        </mxCell>
        <mxCell id="GD8JbYU16s2vGa1B2hzp-5" value="Cluster: ag1/main/va/platform" style="rounded=0;whiteSpace=wrap;html=1;fillColor=#d5e8d4;strokeColor=#82b366;" vertex="1" parent="1">
          <mxGeometry x="280" y="410" width="160" height="40" as="geometry" />
        </mxCell>
        <mxCell id="GD8JbYU16s2vGa1B2hzp-6" value="Bundle" style="rounded=0;whiteSpace=wrap;html=1;fillColor=#d5e8d4;strokeColor=#82b366;" vertex="1" parent="1">
          <mxGeometry x="460" y="410" width="80" height="40" as="geometry" />
        </mxCell>
        <mxCell id="GD8JbYU16s2vGa1B2hzp-7" value="push" style="ellipse;whiteSpace=wrap;html=1;fillColor=#d5e8d4;strokeColor=#82b366;" vertex="1" parent="1">
          <mxGeometry x="560" y="410" width="40" height="40" as="geometry" />
        </mxCell>
        <mxCell id="GD8JbYU16s2vGa1B2hzp-8" value="&lt;div&gt;Finish&lt;/div&gt;" style="ellipse;whiteSpace=wrap;html=1;" vertex="1" parent="1">
          <mxGeometry x="670" y="510" width="60" height="60" as="geometry" />
        </mxCell>
        <mxCell id="GD8JbYU16s2vGa1B2hzp-9" value="" style="endArrow=classic;html=1;rounded=0;exitX=1;exitY=0.5;exitDx=0;exitDy=0;entryX=0;entryY=0.5;entryDx=0;entryDy=0;" edge="1" parent="1" source="GD8JbYU16s2vGa1B2hzp-1" target="GD8JbYU16s2vGa1B2hzp-2">
          <mxGeometry width="50" height="50" relative="1" as="geometry">
            <mxPoint x="370" y="620" as="sourcePoint" />
            <mxPoint x="420" y="570" as="targetPoint" />
          </mxGeometry>
        </mxCell>
        <mxCell id="GD8JbYU16s2vGa1B2hzp-10" value="" style="endArrow=classic;html=1;rounded=0;exitX=1;exitY=0.5;exitDx=0;exitDy=0;entryX=0;entryY=0.5;entryDx=0;entryDy=0;edgeStyle=orthogonalEdgeStyle;curved=1;" edge="1" parent="1" source="GD8JbYU16s2vGa1B2hzp-2" target="GD8JbYU16s2vGa1B2hzp-5">
          <mxGeometry width="50" height="50" relative="1" as="geometry">
            <mxPoint x="180" y="550" as="sourcePoint" />
            <mxPoint x="200" y="550" as="targetPoint" />
          </mxGeometry>
        </mxCell>
        <mxCell id="GD8JbYU16s2vGa1B2hzp-12" value="" style="endArrow=classic;html=1;rounded=0;exitX=1;exitY=0.5;exitDx=0;exitDy=0;entryX=0;entryY=0.5;entryDx=0;entryDy=0;" edge="1" parent="1" source="GD8JbYU16s2vGa1B2hzp-5" target="GD8JbYU16s2vGa1B2hzp-6">
          <mxGeometry width="50" height="50" relative="1" as="geometry">
            <mxPoint x="470" y="430" as="sourcePoint" />
            <mxPoint x="520" y="380" as="targetPoint" />
          </mxGeometry>
        </mxCell>
        <mxCell id="GD8JbYU16s2vGa1B2hzp-14" value="" style="endArrow=classic;html=1;rounded=0;exitX=1;exitY=0.5;exitDx=0;exitDy=0;entryX=0;entryY=0.5;entryDx=0;entryDy=0;" edge="1" parent="1" source="GD8JbYU16s2vGa1B2hzp-6" target="GD8JbYU16s2vGa1B2hzp-7">
          <mxGeometry width="50" height="50" relative="1" as="geometry">
            <mxPoint x="470" y="430" as="sourcePoint" />
            <mxPoint x="520" y="380" as="targetPoint" />
          </mxGeometry>
        </mxCell>
        <mxCell id="GD8JbYU16s2vGa1B2hzp-15" value="" style="endArrow=classic;html=1;rounded=0;exitX=1;exitY=0.5;exitDx=0;exitDy=0;entryX=0;entryY=0.5;entryDx=0;entryDy=0;edgeStyle=orthogonalEdgeStyle;curved=1;" edge="1" parent="1" source="GD8JbYU16s2vGa1B2hzp-7" target="GD8JbYU16s2vGa1B2hzp-8">
          <mxGeometry width="50" height="50" relative="1" as="geometry">
            <mxPoint x="470" y="460" as="sourcePoint" />
            <mxPoint x="520" y="410" as="targetPoint" />
          </mxGeometry>
        </mxCell>
        <mxCell id="GD8JbYU16s2vGa1B2hzp-23" value="Cluster: ag1/main/va/dems" style="rounded=0;whiteSpace=wrap;html=1;fillColor=#d5e8d4;strokeColor=#82b366;" vertex="1" parent="1">
          <mxGeometry x="279.48" y="460" width="160" height="40" as="geometry" />
        </mxCell>
        <mxCell id="GD8JbYU16s2vGa1B2hzp-24" value="Bundle" style="rounded=0;whiteSpace=wrap;html=1;fillColor=#f8cecc;strokeColor=#b85450;" vertex="1" parent="1">
          <mxGeometry x="459.48" y="460" width="80" height="40" as="geometry" />
        </mxCell>
        <mxCell id="GD8JbYU16s2vGa1B2hzp-25" value="skip" style="ellipse;whiteSpace=wrap;html=1;strokeColor=#666666;fillColor=#f5f5f5;fontColor=#333333;" vertex="1" parent="1">
          <mxGeometry x="559.48" y="460" width="40" height="40" as="geometry" />
        </mxCell>
        <mxCell id="GD8JbYU16s2vGa1B2hzp-26" value="" style="endArrow=classic;html=1;rounded=0;exitX=1;exitY=0.5;exitDx=0;exitDy=0;entryX=0;entryY=0.5;entryDx=0;entryDy=0;edgeStyle=orthogonalEdgeStyle;curved=1;" edge="1" parent="1" target="GD8JbYU16s2vGa1B2hzp-23" source="GD8JbYU16s2vGa1B2hzp-2">
          <mxGeometry width="50" height="50" relative="1" as="geometry">
            <mxPoint x="219.48" y="590" as="sourcePoint" />
            <mxPoint x="199.48" y="600" as="targetPoint" />
            <Array as="points">
              <mxPoint x="254" y="540" />
              <mxPoint x="254" y="480" />
            </Array>
          </mxGeometry>
        </mxCell>
        <mxCell id="GD8JbYU16s2vGa1B2hzp-27" value="" style="endArrow=classic;html=1;rounded=0;exitX=1;exitY=0.5;exitDx=0;exitDy=0;entryX=0;entryY=0.5;entryDx=0;entryDy=0;" edge="1" parent="1" source="GD8JbYU16s2vGa1B2hzp-23" target="GD8JbYU16s2vGa1B2hzp-24">
          <mxGeometry width="50" height="50" relative="1" as="geometry">
            <mxPoint x="469.48" y="480" as="sourcePoint" />
            <mxPoint x="519.48" y="430" as="targetPoint" />
          </mxGeometry>
        </mxCell>
        <mxCell id="GD8JbYU16s2vGa1B2hzp-28" value="" style="endArrow=classic;html=1;rounded=0;exitX=1;exitY=0.5;exitDx=0;exitDy=0;entryX=0;entryY=0.5;entryDx=0;entryDy=0;" edge="1" parent="1" source="GD8JbYU16s2vGa1B2hzp-24" target="GD8JbYU16s2vGa1B2hzp-25">
          <mxGeometry width="50" height="50" relative="1" as="geometry">
            <mxPoint x="469.48" y="480" as="sourcePoint" />
            <mxPoint x="519.48" y="430" as="targetPoint" />
          </mxGeometry>
        </mxCell>
        <mxCell id="GD8JbYU16s2vGa1B2hzp-29" value="" style="endArrow=classic;html=1;rounded=0;exitX=1;exitY=0.5;exitDx=0;exitDy=0;entryX=0;entryY=0.5;entryDx=0;entryDy=0;edgeStyle=orthogonalEdgeStyle;curved=1;" edge="1" parent="1" source="GD8JbYU16s2vGa1B2hzp-25" target="GD8JbYU16s2vGa1B2hzp-8">
          <mxGeometry width="50" height="50" relative="1" as="geometry">
            <mxPoint x="469.48" y="510" as="sourcePoint" />
            <mxPoint x="669.48" y="590" as="targetPoint" />
            <Array as="points">
              <mxPoint x="629" y="480" />
              <mxPoint x="629" y="540" />
            </Array>
          </mxGeometry>
        </mxCell>
        <mxCell id="GD8JbYU16s2vGa1B2hzp-30" value="&lt;div&gt;Cluster: us2/main/ca/rms&lt;/div&gt;" style="rounded=0;whiteSpace=wrap;html=1;fillColor=#d5e8d4;strokeColor=#82b366;" vertex="1" parent="1">
          <mxGeometry x="280" y="510" width="160" height="40" as="geometry" />
        </mxCell>
        <mxCell id="GD8JbYU16s2vGa1B2hzp-31" value="Bundle" style="rounded=0;whiteSpace=wrap;html=1;fillColor=#d5e8d4;strokeColor=#82b366;" vertex="1" parent="1">
          <mxGeometry x="460" y="510" width="80" height="40" as="geometry" />
        </mxCell>
        <mxCell id="GD8JbYU16s2vGa1B2hzp-32" value="push" style="ellipse;whiteSpace=wrap;html=1;fillColor=#d5e8d4;strokeColor=#82b366;" vertex="1" parent="1">
          <mxGeometry x="560" y="510" width="40" height="40" as="geometry" />
        </mxCell>
        <mxCell id="GD8JbYU16s2vGa1B2hzp-33" value="" style="endArrow=classic;html=1;rounded=0;exitX=1;exitY=0.5;exitDx=0;exitDy=0;entryX=0;entryY=0.5;entryDx=0;entryDy=0;edgeStyle=orthogonalEdgeStyle;curved=1;" edge="1" parent="1" target="GD8JbYU16s2vGa1B2hzp-30" source="GD8JbYU16s2vGa1B2hzp-2">
          <mxGeometry width="50" height="50" relative="1" as="geometry">
            <mxPoint x="220" y="640" as="sourcePoint" />
            <mxPoint x="200" y="650" as="targetPoint" />
            <Array as="points">
              <mxPoint x="254" y="540" />
              <mxPoint x="254" y="530" />
            </Array>
          </mxGeometry>
        </mxCell>
        <mxCell id="GD8JbYU16s2vGa1B2hzp-34" value="" style="endArrow=classic;html=1;rounded=0;exitX=1;exitY=0.5;exitDx=0;exitDy=0;entryX=0;entryY=0.5;entryDx=0;entryDy=0;" edge="1" parent="1" source="GD8JbYU16s2vGa1B2hzp-30" target="GD8JbYU16s2vGa1B2hzp-31">
          <mxGeometry width="50" height="50" relative="1" as="geometry">
            <mxPoint x="470" y="530" as="sourcePoint" />
            <mxPoint x="520" y="480" as="targetPoint" />
          </mxGeometry>
        </mxCell>
        <mxCell id="GD8JbYU16s2vGa1B2hzp-35" value="" style="endArrow=classic;html=1;rounded=0;exitX=1;exitY=0.5;exitDx=0;exitDy=0;entryX=0;entryY=0.5;entryDx=0;entryDy=0;" edge="1" parent="1" source="GD8JbYU16s2vGa1B2hzp-31" target="GD8JbYU16s2vGa1B2hzp-32">
          <mxGeometry width="50" height="50" relative="1" as="geometry">
            <mxPoint x="470" y="530" as="sourcePoint" />
            <mxPoint x="520" y="480" as="targetPoint" />
          </mxGeometry>
        </mxCell>
        <mxCell id="GD8JbYU16s2vGa1B2hzp-36" value="" style="endArrow=classic;html=1;rounded=0;exitX=1;exitY=0.5;exitDx=0;exitDy=0;edgeStyle=orthogonalEdgeStyle;curved=1;" edge="1" parent="1" source="GD8JbYU16s2vGa1B2hzp-32">
          <mxGeometry width="50" height="50" relative="1" as="geometry">
            <mxPoint x="470" y="560" as="sourcePoint" />
            <mxPoint x="670" y="540" as="targetPoint" />
          </mxGeometry>
        </mxCell>
        <mxCell id="GD8JbYU16s2vGa1B2hzp-38" value="Cluster: us1/main/va/platform" style="rounded=0;whiteSpace=wrap;html=1;fillColor=#d5e8d4;strokeColor=#82b366;" vertex="1" parent="1">
          <mxGeometry x="280" y="600" width="160" height="40" as="geometry" />
        </mxCell>
        <mxCell id="GD8JbYU16s2vGa1B2hzp-39" value="Bundle" style="rounded=0;whiteSpace=wrap;html=1;fillColor=#d5e8d4;strokeColor=#82b366;" vertex="1" parent="1">
          <mxGeometry x="460" y="600" width="80" height="40" as="geometry" />
        </mxCell>
        <mxCell id="GD8JbYU16s2vGa1B2hzp-40" value="push" style="ellipse;whiteSpace=wrap;html=1;fillColor=#d5e8d4;strokeColor=#82b366;" vertex="1" parent="1">
          <mxGeometry x="560" y="600" width="40" height="40" as="geometry" />
        </mxCell>
        <mxCell id="GD8JbYU16s2vGa1B2hzp-41" value="" style="endArrow=classic;html=1;rounded=0;exitX=1;exitY=0.5;exitDx=0;exitDy=0;entryX=0;entryY=0.5;entryDx=0;entryDy=0;edgeStyle=orthogonalEdgeStyle;curved=1;" edge="1" parent="1" target="GD8JbYU16s2vGa1B2hzp-38" source="GD8JbYU16s2vGa1B2hzp-2">
          <mxGeometry width="50" height="50" relative="1" as="geometry">
            <mxPoint x="220" y="630" as="sourcePoint" />
            <mxPoint x="200" y="740" as="targetPoint" />
          </mxGeometry>
        </mxCell>
        <mxCell id="GD8JbYU16s2vGa1B2hzp-42" value="" style="endArrow=classic;html=1;rounded=0;exitX=1;exitY=0.5;exitDx=0;exitDy=0;entryX=0;entryY=0.5;entryDx=0;entryDy=0;" edge="1" parent="1" source="GD8JbYU16s2vGa1B2hzp-38" target="GD8JbYU16s2vGa1B2hzp-39">
          <mxGeometry width="50" height="50" relative="1" as="geometry">
            <mxPoint x="470" y="620" as="sourcePoint" />
            <mxPoint x="520" y="570" as="targetPoint" />
          </mxGeometry>
        </mxCell>
        <mxCell id="GD8JbYU16s2vGa1B2hzp-43" value="" style="endArrow=classic;html=1;rounded=0;exitX=1;exitY=0.5;exitDx=0;exitDy=0;entryX=0;entryY=0.5;entryDx=0;entryDy=0;" edge="1" parent="1" source="GD8JbYU16s2vGa1B2hzp-39" target="GD8JbYU16s2vGa1B2hzp-40">
          <mxGeometry width="50" height="50" relative="1" as="geometry">
            <mxPoint x="470" y="620" as="sourcePoint" />
            <mxPoint x="520" y="570" as="targetPoint" />
          </mxGeometry>
        </mxCell>
        <mxCell id="GD8JbYU16s2vGa1B2hzp-44" value="" style="endArrow=classic;html=1;rounded=0;exitX=1;exitY=0.5;exitDx=0;exitDy=0;edgeStyle=orthogonalEdgeStyle;curved=1;entryX=0;entryY=0.5;entryDx=0;entryDy=0;" edge="1" parent="1" source="GD8JbYU16s2vGa1B2hzp-40" target="GD8JbYU16s2vGa1B2hzp-8">
          <mxGeometry width="50" height="50" relative="1" as="geometry">
            <mxPoint x="470" y="650" as="sourcePoint" />
            <mxPoint x="670" y="630" as="targetPoint" />
          </mxGeometry>
        </mxCell>
        <mxCell id="GD8JbYU16s2vGa1B2hzp-45" value="" style="endArrow=none;dashed=1;html=1;dashPattern=1 3;strokeWidth=2;rounded=0;exitX=1;exitY=0.5;exitDx=0;exitDy=0;entryX=0;entryY=0.5;entryDx=0;entryDy=0;edgeStyle=orthogonalEdgeStyle;curved=1;" edge="1" parent="1" source="GD8JbYU16s2vGa1B2hzp-2" target="GD8JbYU16s2vGa1B2hzp-8">
          <mxGeometry width="50" height="50" relative="1" as="geometry">
            <mxPoint x="470" y="460" as="sourcePoint" />
            <mxPoint x="520" y="410" as="targetPoint" />
            <Array as="points">
              <mxPoint x="250" y="540" />
              <mxPoint x="250" y="580" />
              <mxPoint x="630" y="580" />
              <mxPoint x="630" y="540" />
            </Array>
          </mxGeometry>
        </mxCell>
        <mxCell id="GD8JbYU16s2vGa1B2hzp-46" value="&lt;div&gt;etc.&lt;/div&gt;" style="edgeLabel;html=1;align=center;verticalAlign=middle;resizable=0;points=[];" vertex="1" connectable="0" parent="GD8JbYU16s2vGa1B2hzp-45">
          <mxGeometry x="-0.0236" y="3" relative="1" as="geometry">
            <mxPoint as="offset" />
          </mxGeometry>
        </mxCell>
      </root>
    </mxGraphModel>
  </diagram>
</mxfile>
